<svg xmlns="http://www.w3.org/2000/svg" width="554" height="554" viewBox="0 0 554 554">
<g>
<path d="M 450.50 448.01 C442.75,449.96 420.57,451.41 413.50,450.42 C390.74,447.25 386.52,446.43 371.50,442.27 C329.80,430.74 286.13,409.70 238.79,378.34 C228.51,371.52 219.51,365.39 218.79,364.70 C218.08,364.02 215.09,361.71 212.14,359.56 C196.54,348.23 162.89,318.76 147.95,303.35 C132.56,287.47 113.54,265.06 104.81,252.50 C95.88,239.66 90.00,230.90 90.00,230.44 C90.00,230.18 88.82,228.10 87.39,225.82 C74.47,205.37 65.00,176.79 65.00,158.29 C65.00,135.61 74.63,119.23 93.54,109.76 C115.72,98.66 152.70,98.31 189.50,108.84 C193.35,109.94 198.30,111.36 200.50,111.99 C206.02,113.57 213.19,116.02 215.03,116.96 C215.88,117.39 218.06,118.07 219.89,118.48 C224.24,119.43 236.63,124.90 257.81,135.20 C268.76,140.52 271.33,142.81 261.40,138.40 C244.30,130.80 221.93,122.80 209.00,119.67 C190.80,115.25 184.57,114.50 166.00,114.50 C148.31,114.50 147.11,114.63 138.70,117.38 C118.61,123.97 108.15,135.34 105.00,154.02 C100.78,179.00 115.13,215.40 144.39,254.00 C159.33,273.72 164.43,279.51 184.46,299.57 C206.22,321.37 227.16,339.40 246.00,352.55 C283.05,378.41 314.51,396.42 344.00,408.65 C345.92,409.44 348.26,410.51 349.19,411.02 C351.25,412.14 359.26,415.03 372.50,419.42 C389.66,425.11 403.00,428.41 416.25,430.23 C427.75,431.81 452.19,431.94 452.69,430.43 C452.89,429.84 454.29,429.54 455.81,429.76 C459.45,430.29 471.80,425.92 477.27,422.16 C483.28,418.03 488.78,411.70 491.64,405.62 L 494.06 400.50 L 493.48 405.89 C493.15,408.93 491.36,414.52 489.37,418.71 C482.44,433.32 469.20,443.30 450.50,448.01 ZM 367.00 368.62 L 367.00 371.00 L 347.54 371.00 C345.22,371.00 343.18,371.02 341.38,371.03 C333.54,371.10 330.16,371.13 327.93,369.54 C325.72,367.96 324.64,364.80 321.50,358.51 L 317.50 350.50 L 290.50 349.88 C275.65,349.54 263.47,349.20 263.43,349.13 C263.39,349.06 260.92,347.20 257.93,345.01 C254.94,342.82 251.29,340.09 249.82,338.95 C248.34,337.81 245.56,335.67 243.64,334.19 C229.49,323.31 224.13,318.88 223.75,317.77 C223.20,316.15 224.60,312.80 233.23,295.00 C248.02,264.51 261.03,236.87 272.89,210.75 L 275.05 206.00 L 283.46 206.00 C291.30,206.00 291.91,206.15 292.58,208.25 C292.97,209.49 297.67,219.50 303.02,230.50 C308.38,241.50 318.62,263.10 325.79,278.50 C332.96,293.90 341.06,311.23 343.78,317.00 C346.50,322.77 349.87,329.98 351.26,333.00 C352.66,336.02 356.77,344.74 360.40,352.38 C364.03,360.01 367.00,367.32 367.00,368.62 ZM 401.45 359.42 L 397.40 368.50 L 389.20 368.79 L 381.01 369.08 L 378.43 363.29 C377.01,360.11 370.08,344.23 363.03,328.00 C347.82,293.01 343.46,283.13 338.62,272.68 C336.63,268.37 335.00,264.62 335.00,264.34 C335.00,264.06 333.72,261.05 332.15,257.66 C320.89,233.28 310.89,208.80 311.18,206.31 L 311.50 203.50 L 326.76 203.22 C335.15,203.07 343.42,203.31 345.13,203.75 C348.04,204.51 348.76,205.76 356.49,223.53 C361.03,233.96 367.32,248.80 370.46,256.50 C378.98,277.37 383.93,289.09 385.86,293.00 C387.96,297.24 390.65,298.05 391.89,294.82 C392.38,293.55 393.91,290.02 395.29,287.00 C398.44,280.09 402.77,269.87 405.03,264.00 C409.11,253.41 415.19,238.27 416.49,235.50 C417.25,233.85 419.52,228.23 421.52,223.00 C427.29,207.93 428.24,205.94 430.41,204.43 C431.98,203.32 436.37,203.00 449.72,203.00 L 467.00 203.00 L 467.00 205.47 C467.00,206.82 466.34,209.41 465.54,211.22 C464.74,213.02 459.74,224.85 454.43,237.50 C449.12,250.15 444.45,260.95 444.05,261.50 C443.66,262.05 441.64,266.55 439.57,271.50 C437.51,276.45 434.50,283.31 432.91,286.75 C431.31,290.19 430.00,293.27 430.00,293.59 C430.00,293.91 428.61,297.17 426.92,300.84 C425.22,304.50 422.05,311.77 419.87,317.00 C417.69,322.23 414.40,329.88 412.56,334.00 C410.71,338.12 408.37,343.49 407.35,345.92 C406.33,348.36 403.68,354.43 401.45,359.42 ZM 449.79 462.45 C442.66,463.88 409.37,464.63 406.49,463.42 C405.94,463.18 400.99,462.33 395.49,461.52 C369.20,457.66 361.18,456.01 357.71,453.73 C356.48,452.92 353.90,451.95 351.99,451.57 C350.07,451.19 347.60,450.50 346.50,450.03 C345.40,449.57 339.77,447.51 334.00,445.47 C318.62,440.03 313.55,437.83 292.20,427.36 C275.35,419.10 251.50,405.84 243.21,400.13 C241.72,399.11 234.88,394.53 228.00,389.96 C208.55,377.03 201.61,372.10 193.94,365.77 C191.43,363.69 188.73,361.99 187.94,361.97 C187.15,361.96 183.80,363.27 180.50,364.89 C175.28,367.44 172.30,368.93 169.15,369.80 C164.76,371.00 160.04,371.00 148.51,371.00 L 147.61 371.00 C129.66,371.00 127.82,370.83 121.59,368.57 C112.88,365.41 106.83,361.44 99.81,354.30 C88.96,343.26 84.73,330.07 85.22,308.80 L 85.50 296.50 L 99.98 296.22 C107.94,296.07 114.87,295.53 115.38,295.02 C116.30,294.10 114.21,290.87 108.57,284.50 C100.08,274.91 83.91,252.42 75.50,238.53 C66.63,223.88 55.72,199.28 53.50,188.93 C53.10,187.04 52.48,185.05 52.13,184.50 C51.25,183.11 49.05,168.95 48.36,160.27 C47.80,153.26 49.88,137.21 51.96,132.50 C56.71,121.72 58.78,118.27 63.70,112.96 C69.63,106.55 80.31,98.60 82.16,99.22 C82.74,99.41 81.36,100.87 79.08,102.45 C67.34,110.58 58.05,124.87 54.55,140.20 C51.63,152.98 53.24,174.44 58.40,191.50 C64.45,211.53 77.54,237.14 92.13,257.50 C94.89,261.35 97.90,265.62 98.82,267.00 C99.74,268.37 101.25,270.40 102.16,271.50 C119.56,292.52 126.90,300.58 143.64,317.06 C163.66,336.78 177.68,348.98 199.31,365.50 C212.97,375.93 236.68,392.38 245.82,397.77 C249.30,399.82 252.90,401.96 253.82,402.51 C262.11,407.51 271.37,412.93 275.50,415.21 C284.81,420.32 316.88,436.00 318.04,436.00 C318.67,436.00 320.39,436.66 321.85,437.47 C328.54,441.17 353.69,450.10 368.50,454.03 C390.32,459.82 405.52,462.01 423.82,461.98 C449.74,461.95 466.34,457.59 482.25,446.66 C485.96,444.10 489.00,442.24 489.00,442.51 C489.00,443.86 480.81,450.53 475.50,453.50 C468.30,457.53 460.19,460.35 449.79,462.45 ZM 209.88 265.41 C209.81,279.76 209.47,294.53 209.13,298.24 L 208.50 304.99 L 202.58 299.74 C199.32,296.86 190.43,287.83 182.83,279.67 L 169.00 264.83 L 169.00 256.04 C169.00,251.21 168.72,245.84 168.38,244.12 L 167.75 241.00 L 160.01 241.00 C146.82,241.00 144.00,236.96 144.00,218.10 L 144.00 206.00 L 208.69 206.00 L 209.34 222.66 C209.70,231.82 209.94,251.06 209.88,265.41 ZM 267.75 315.27 C269.81,315.49 278.60,315.74 287.28,315.83 C300.65,315.97 303.15,315.77 303.65,314.46 C303.98,313.62 302.07,308.44 299.43,302.95 C296.78,297.46 292.32,287.69 289.53,281.24 C284.62,269.90 282.73,267.66 280.90,271.00 C279.52,273.51 275.48,283.02 271.98,292.00 C270.15,296.67 268.32,300.95 267.91,301.51 C266.78,303.02 264.03,311.26 264.01,313.19 C264.00,314.41 265.04,314.99 267.75,315.27 ZM 136.68 335.98 C140.01,336.98 152.15,337.26 154.42,336.39 C157.18,335.33 156.17,333.50 149.59,327.69 C146.07,324.58 139.21,317.97 134.35,313.02 C129.33,307.89 124.69,304.00 123.61,304.00 C121.82,304.00 121.74,304.59 122.34,313.02 C122.77,319.02 123.65,323.36 124.98,325.96 C127.18,330.28 132.32,334.67 136.68,335.98 Z" fill="rgb(4,4,3)"/>
<path d="M 449.79 462.45 C460.19,460.35 468.30,457.53 475.50,453.50 C480.81,450.53 489.00,443.86 489.00,442.51 C489.00,442.24 485.96,444.10 482.25,446.66 C466.34,457.59 449.74,461.95 423.82,461.98 C405.52,462.01 390.32,459.82 368.50,454.03 C353.69,450.10 328.54,441.17 321.85,437.47 C320.39,436.66 318.67,436.00 318.04,436.00 C316.88,436.00 284.81,420.32 275.50,415.21 C271.37,412.93 262.11,407.51 253.82,402.51 C252.90,401.96 249.30,399.82 245.82,397.77 C236.68,392.38 212.97,375.93 199.31,365.50 C177.68,348.98 163.66,336.78 143.64,317.06 C126.90,300.58 119.56,292.52 102.16,271.50 C101.25,270.40 99.74,268.37 98.82,267.00 C97.90,265.62 94.89,261.35 92.13,257.50 C77.54,237.14 64.45,211.53 58.40,191.50 C53.24,174.44 51.63,152.98 54.55,140.20 C58.05,124.87 67.34,110.58 79.08,102.45 C81.36,100.87 82.74,99.41 82.16,99.22 C80.31,98.60 69.63,106.55 63.70,112.96 C58.78,118.27 56.71,121.72 51.96,132.50 C49.88,137.21 47.80,153.26 48.36,160.27 C49.05,168.95 51.25,183.11 52.13,184.50 C52.48,185.05 53.10,187.04 53.50,188.93 C55.72,199.28 66.63,223.88 75.50,238.53 C83.91,252.42 100.08,274.91 108.57,284.50 C114.21,290.87 116.30,294.10 115.38,295.02 C114.87,295.53 107.94,296.07 99.98,296.22 L 85.50 296.50 L 85.22 308.80 C84.73,330.07 88.96,343.26 99.81,354.30 C106.83,361.44 112.88,365.41 121.59,368.57 C127.82,370.83 129.66,371.00 147.61,371.00 L 148.51 371.00 L 148.51 371.00 C160.04,371.00 164.76,371.00 169.15,369.80 C172.30,368.93 175.28,367.44 180.50,364.89 C183.80,363.27 187.15,361.96 187.94,361.97 C188.73,361.99 191.43,363.69 193.94,365.77 C201.61,372.10 208.55,377.03 228.00,389.96 C234.88,394.53 241.72,399.11 243.21,400.13 C251.50,405.84 275.35,419.10 292.20,427.36 C313.55,437.83 318.62,440.03 334.00,445.47 C339.77,447.51 345.40,449.57 346.50,450.03 C347.60,450.50 350.07,451.19 351.99,451.57 C353.90,451.95 356.48,452.92 357.71,453.73 C358.60,454.31 359.77,454.85 361.47,455.39 C360.89,455.23 360.39,455.10 360.00,455.00 C346.35,451.44 321.97,442.92 311.50,438.05 C278.63,422.77 259.50,412.27 232.00,394.43 C230.07,393.18 223.57,388.75 217.54,384.58 C211.52,380.41 206.06,377.00 205.42,377.00 C204.77,377.00 203.66,377.71 202.94,378.57 C200.64,381.35 194.70,383.75 187.31,384.89 C178.15,386.30 161.11,386.32 153.43,384.92 C146.56,383.66 136.01,378.92 132.68,375.59 C131.42,374.32 127.37,372.29 123.70,371.07 C115.78,368.43 104.15,361.00 98.36,354.88 C92.82,349.01 89.83,343.96 86.66,335.08 C84.19,328.20 84.00,326.47 84.00,311.33 L 84.00 295.00 L 96.75 294.98 C111.56,294.97 112.85,294.54 110.70,290.38 C109.88,288.79 108.22,286.60 107.01,285.51 C103.24,282.10 80.00,249.90 80.00,248.09 C80.00,247.58 79.66,247.02 79.25,246.83 C78.52,246.51 71.22,234.23 66.27,225.00 C60.55,214.34 51.82,190.71 49.46,179.50 C47.19,168.69 46.56,154.43 47.94,144.97 C50.39,128.22 58.35,113.42 69.21,105.42 C79.31,97.97 85.98,95.02 101.50,91.13 C106.79,89.80 121.38,88.73 118.00,89.92 C116.62,90.41 114.16,90.85 112.52,90.90 C109.81,90.99 101.88,93.61 91.50,97.86 C84.27,100.81 73.60,108.77 68.78,114.79 C62.88,122.17 58.36,132.11 56.94,140.81 C56.34,144.49 55.37,149.16 54.79,151.18 C52.33,159.71 57.06,186.62 64.25,205.00 C72.18,225.29 89.12,252.93 108.77,277.67 C118.55,289.98 156.23,328.56 169.00,339.33 C173.68,343.27 177.73,346.72 178.00,347.00 C178.66,347.66 183.11,351.09 203.50,366.66 C233.09,389.25 271.37,412.90 299.90,426.23 C319.08,435.20 320.43,435.79 328.50,438.94 C332.90,440.66 337.40,442.47 338.50,442.96 C343.81,445.36 362.76,451.27 373.50,453.87 C395.03,459.11 400.70,458.92 384.50,453.51 C380.10,452.04 375.08,450.20 373.35,449.42 C371.62,448.64 369.92,448.00 369.58,448.00 C368.00,448.00 349.35,440.27 339.00,435.32 C293.16,413.42 266.64,398.69 236.05,378.17 C185.89,344.51 140.42,302.06 106.81,257.50 C88.50,233.23 74.06,206.38 67.45,184.35 C63.91,172.53 62.93,152.76 65.40,143.00 C67.95,132.97 71.81,126.14 78.98,119.00 C87.57,110.43 96.82,105.62 110.74,102.46 C129.87,98.12 158.31,99.36 183.29,105.62 C192.22,107.86 211.49,113.70 213.66,114.83 C219.43,117.83 231.83,123.00 233.27,123.00 C235.72,123.00 272.70,141.04 285.00,148.23 C305.49,160.21 317.90,168.09 317.96,169.16 C318.00,169.80 304.57,162.45 293.00,155.49 C287.80,152.37 256.57,137.00 255.43,137.00 C255.13,137.00 253.00,136.16 250.70,135.12 C243.15,131.75 221.19,124.19 211.50,121.63 C194.61,117.16 188.87,116.50 167.00,116.50 C145.96,116.51 145.36,116.56 139.00,119.19 L 132.50 121.87 L 138.50 121.19 C150.15,119.85 172.00,120.64 179.31,122.66 C183.05,123.69 186.14,124.97 186.17,125.52 C186.20,126.06 184.04,126.86 181.36,127.30 C174.29,128.48 156.23,134.34 150.02,137.49 C143.17,140.96 134.77,148.91 131.06,155.41 C124.37,167.15 122.72,185.37 126.81,202.16 C133.94,231.40 158.71,271.72 186.95,300.03 C216.19,329.34 242.72,350.15 282.50,374.95 C309.47,391.76 351.90,412.22 370.87,417.56 C373.69,418.35 378.14,419.64 380.75,420.42 C406.44,428.09 415.38,429.51 438.00,429.47 C454.24,429.45 457.32,429.18 463.22,427.27 C472.86,424.14 475.32,422.65 482.38,415.70 C489.30,408.90 492.14,403.05 493.94,391.90 C494.48,388.51 495.17,385.49 495.47,385.20 C495.76,384.91 496.00,388.74 496.00,393.72 C496.00,410.35 489.84,425.45 479.14,435.03 C474.64,439.07 470.50,441.49 457.17,447.86 C452.40,450.15 459.84,451.73 469.64,450.52 C479.34,449.32 493.02,437.91 498.44,426.50 C500.59,421.97 502.59,415.76 505.06,406.00 C505.74,403.27 505.84,403.93 505.48,409.00 C504.78,418.85 499.93,431.47 493.58,439.94 C492.16,441.84 491.00,443.79 491.00,444.29 C491.00,444.79 493.20,444.89 496.00,444.50 C501.52,443.74 502.08,444.42 499.39,448.53 C496.57,452.82 488.80,457.62 479.44,460.82 C471.57,463.52 468.18,464.06 453.44,464.95 C436.45,465.98 412.70,466.35 411.92,465.60 C411.69,465.38 407.23,464.68 402.00,464.06 C390.19,462.65 378.48,460.38 370.00,457.85 C368.18,457.31 366.13,456.71 364.30,456.19 C369.81,457.56 379.09,459.11 395.49,461.52 C400.99,462.33 405.94,463.18 406.49,463.42 C409.37,464.63 442.66,463.88 449.79,462.45 ZM 401.45 359.42 C403.68,354.43 406.33,348.36 407.35,345.92 C408.37,343.49 410.71,338.12 412.56,334.00 C414.40,329.88 417.69,322.23 419.87,317.00 C422.05,311.77 425.22,304.50 426.92,300.84 C428.61,297.17 430.00,293.91 430.00,293.59 C430.00,293.27 431.31,290.19 432.91,286.75 C434.50,283.31 437.51,276.45 439.57,271.50 C441.64,266.55 443.66,262.05 444.05,261.50 C444.45,260.95 449.12,250.15 454.43,237.50 C459.74,224.85 464.74,213.02 465.54,211.22 C466.34,209.41 467.00,206.82 467.00,205.47 L 467.00 204.03 C467.33,204.23 467.58,204.47 467.75,204.75 C468.51,206.02 467.79,208.18 466.57,211.86 C466.32,212.59 466.06,213.38 465.78,214.24 C463.10,222.56 463.44,222.96 473.25,222.98 C481.09,223.00 484.00,224.93 484.00,230.10 C484.00,232.74 477.45,249.70 472.64,259.50 C471.83,261.15 469.96,265.42 468.49,269.00 C465.79,275.52 459.45,290.02 456.01,297.50 C455.00,299.70 452.52,305.33 450.52,310.00 C448.51,314.67 445.58,321.42 444.02,325.00 C442.46,328.58 440.29,333.52 439.22,336.00 C438.14,338.48 435.67,344.10 433.73,348.50 C431.79,352.90 428.78,359.88 427.04,364.00 C420.09,380.47 418.19,383.00 412.71,383.00 C408.26,383.00 406.35,381.44 402.93,375.02 C400.96,371.32 399.32,369.31 398.62,369.74 C398.00,370.13 393.90,370.68 389.50,370.97 C385.00,371.27 382.93,371.25 382.17,372.24 C381.53,373.07 381.80,374.58 382.31,377.55 C382.40,378.01 382.48,378.52 382.57,379.06 C383.02,381.71 382.74,382.97 381.47,384.02 C379.17,385.93 361.74,386.45 357.06,384.75 C354.75,383.91 352.49,381.80 350.15,378.32 L 346.67 373.14 L 336.76 372.43 L 326.85 371.73 L 324.29 367.87 L 321.73 364.00 L 307.52 364.00 C299.33,364.00 291.86,363.51 289.90,362.84 C286.64,361.72 275.07,354.48 273.97,352.87 C273.68,352.44 271.43,351.79 268.97,351.43 C264.13,350.70 258.96,347.77 249.32,340.29 C224.16,320.76 222.00,318.89 222.02,316.72 C222.02,315.50 222.44,313.85 222.95,313.05 C224.17,311.12 222.88,308.90 217.72,304.03 C212.47,299.08 211.00,298.95 211.00,303.44 C211.00,305.33 210.59,307.14 210.08,307.45 C208.83,308.22 176.31,275.88 169.00,266.60 C167.96,265.28 167.35,261.31 167.00,253.60 L 166.50 242.50 L 158.51 242.20 C151.50,241.94 150.18,241.59 147.83,239.34 C143.49,235.18 142.92,232.51 143.22,217.97 L 143.50 204.50 L 175.94 204.24 C194.71,204.08 208.76,204.36 209.29,204.89 C209.80,205.40 210.45,209.79 210.75,214.65 C211.04,219.52 211.78,223.83 212.39,224.23 C213.00,224.64 215.21,224.98 217.30,224.98 C219.39,224.99 222.42,225.68 224.03,226.52 C229.75,229.48 230.00,231.00 230.00,263.39 C230.00,280.08 230.40,293.13 230.91,293.45 C231.92,294.07 239.75,279.15 248.45,260.00 C251.57,253.12 255.41,244.80 256.97,241.50 C258.53,238.20 261.47,231.90 263.50,227.50 C271.08,211.07 273.16,205.93 276.73,204.48 C278.35,203.83 280.28,203.94 283.17,204.10 C283.75,204.13 284.37,204.17 285.03,204.20 L 291.50 204.50 L 296.68 214.50 C299.53,220.00 302.02,224.89 302.22,225.36 C302.41,225.84 303.87,226.37 305.46,226.54 C310.82,227.13 313.29,230.12 320.50,244.78 C324.35,252.60 328.27,260.68 329.22,262.75 C330.16,264.81 331.37,267.17 331.90,268.00 C332.43,268.83 334.35,272.54 336.16,276.25 C337.97,279.96 339.79,283.00 340.19,283.00 C341.10,283.00 340.52,281.27 337.00,273.49 C335.51,270.19 333.94,266.36 333.51,264.99 C333.09,263.62 331.27,259.50 329.46,255.82 C327.66,252.15 325.85,248.10 325.45,246.82 C325.05,245.55 323.71,242.25 322.47,239.50 C317.62,228.71 316.11,225.17 312.62,216.38 C312.21,215.33 311.81,214.37 311.45,213.48 C309.57,208.84 308.51,206.24 309.38,204.79 C309.73,204.19 310.41,203.79 311.50,203.52 L 311.18 206.31 C310.89,208.80 320.89,233.28 332.15,257.66 C333.72,261.05 335.00,264.06 335.00,264.34 C335.00,264.62 336.63,268.37 338.62,272.68 C343.46,283.13 347.82,293.01 363.03,328.00 C370.08,344.23 377.01,360.11 378.43,363.29 L 381.01 369.08 L 389.20 368.79 L 397.40 368.50 ZM 450.50 448.01 C469.20,443.30 482.44,433.32 489.37,418.71 C491.36,414.52 493.15,408.93 493.48,405.89 L 494.06 400.50 L 491.64 405.62 C488.78,411.70 483.28,418.03 477.27,422.16 C471.80,425.92 459.45,430.29 455.81,429.76 C454.29,429.54 452.89,429.84 452.69,430.43 C452.19,431.94 427.75,431.81 416.25,430.23 C403.00,428.41 389.66,425.11 372.50,419.42 C359.26,415.03 351.25,412.14 349.19,411.02 C348.26,410.51 345.92,409.44 344.00,408.65 C314.51,396.42 283.05,378.41 246.00,352.55 C227.16,339.40 206.22,321.37 184.46,299.57 C164.43,279.51 159.33,273.72 144.39,254.00 C115.13,215.40 100.78,179.00 105.00,154.02 C108.15,135.34 118.61,123.97 138.70,117.38 C147.11,114.63 148.31,114.50 166.00,114.50 C184.57,114.50 190.80,115.25 209.00,119.67 C221.93,122.80 244.30,130.80 261.40,138.40 C271.33,142.81 268.76,140.52 257.81,135.20 C236.63,124.90 224.24,119.43 219.89,118.48 C218.06,118.07 215.88,117.39 215.03,116.96 C213.19,116.02 206.02,113.57 200.50,111.99 C198.30,111.36 193.35,109.94 189.50,108.84 C152.70,98.31 115.72,98.66 93.54,109.76 C74.63,119.23 65.00,135.61 65.00,158.29 C65.00,176.79 74.47,205.37 87.39,225.82 C88.82,228.10 90.00,230.18 90.00,230.44 C90.00,230.90 95.88,239.66 104.81,252.50 C113.54,265.06 132.56,287.47 147.95,303.35 C162.89,318.76 196.54,348.23 212.14,359.56 C215.09,361.71 218.08,364.02 218.79,364.70 C219.51,365.39 228.51,371.52 238.79,378.34 C286.13,409.70 329.80,430.74 371.50,442.27 C386.52,446.43 390.74,447.25 413.50,450.42 C420.57,451.41 442.75,449.96 450.50,448.01 ZM 367.00 368.62 C367.00,367.32 364.03,360.01 360.40,352.38 C356.77,344.74 352.66,336.02 351.26,333.00 C349.87,329.98 346.50,322.77 343.78,317.00 C341.06,311.23 332.96,293.90 325.79,278.50 C318.62,263.10 308.38,241.50 303.02,230.50 C297.67,219.50 292.97,209.49 292.58,208.25 C291.91,206.15 291.30,206.00 283.46,206.00 L 275.05 206.00 L 272.89 210.75 C261.03,236.87 248.02,264.51 233.23,295.00 C224.60,312.80 223.20,316.15 223.75,317.77 C224.13,318.88 229.49,323.31 243.64,334.19 C245.56,335.67 248.34,337.81 249.82,338.95 C251.29,340.09 254.94,342.82 257.93,345.01 C260.92,347.20 263.39,349.06 263.43,349.13 C263.47,349.20 275.65,349.54 290.50,349.88 L 317.50 350.50 L 321.50 358.51 C324.64,364.80 325.72,367.96 327.93,369.54 C330.16,371.13 333.54,371.10 341.38,371.03 C343.18,371.02 345.22,371.00 347.54,371.00 L 367.00 371.00 ZM 209.88 265.41 C209.94,251.06 209.70,231.82 209.34,222.66 L 208.69 206.00 L 144.00 206.00 L 144.00 218.10 C144.00,236.96 146.82,241.00 160.01,241.00 L 167.75 241.00 L 168.38 244.12 C168.72,245.84 169.00,251.21 169.00,256.04 L 169.00 264.83 L 182.83 279.67 C190.43,287.83 199.32,296.86 202.58,299.74 L 208.50 304.99 L 209.13 298.24 C209.47,294.53 209.81,279.76 209.88,265.41 ZM 267.75 315.27 C265.04,314.99 264.00,314.41 264.01,313.19 C264.03,311.26 266.78,303.02 267.91,301.51 C268.32,300.95 270.15,296.67 271.98,292.00 C275.48,283.02 279.52,273.51 280.90,271.00 C282.73,267.66 284.62,269.90 289.53,281.24 C292.32,287.69 296.78,297.46 299.43,302.95 C302.07,308.44 303.98,313.62 303.65,314.46 C303.15,315.77 300.65,315.97 287.28,315.83 C278.60,315.74 269.81,315.49 267.75,315.27 ZM 459.04 203.00 L 449.72 203.00 C436.37,203.00 431.98,203.32 430.41,204.43 C428.24,205.94 427.29,207.93 421.52,223.00 C419.52,228.23 417.25,233.85 416.49,235.50 C415.19,238.27 409.11,253.41 405.03,264.00 C402.77,269.87 398.44,280.09 395.29,287.00 C393.91,290.02 392.38,293.55 391.89,294.82 C390.65,298.05 387.96,297.24 385.86,293.00 C383.93,289.09 378.98,277.37 370.46,256.50 C367.32,248.80 361.03,233.96 356.49,223.53 C348.76,205.76 348.04,204.51 345.13,203.75 C343.42,203.31 335.15,203.07 326.76,203.22 L 311.58 203.50 C313.87,202.95 317.89,202.96 324.34,202.99 C325.79,202.99 327.35,203.00 329.05,203.00 L 349.10 203.00 L 350.64 206.75 C355.62,218.85 358.11,223.00 360.40,223.00 C363.78,223.00 369.25,227.05 371.23,231.03 C373.69,235.94 377.53,244.64 379.82,250.50 C387.32,269.69 392.74,281.52 394.15,281.79 C396.06,282.16 399.25,275.10 414.93,235.83 C421.00,220.60 426.50,206.99 427.15,205.58 L 428.32 203.00 L 448.16 203.00 C449.78,203.00 451.27,203.00 452.66,202.99 C455.13,202.98 457.24,202.98 459.04,203.00 ZM 136.68 335.98 C132.32,334.67 127.18,330.28 124.98,325.96 C123.65,323.36 122.77,319.02 122.34,313.02 C121.74,304.59 121.82,304.00 123.61,304.00 C124.69,304.00 129.33,307.89 134.35,313.02 C139.21,317.97 146.07,324.58 149.59,327.69 C156.17,333.50 157.18,335.33 154.42,336.39 C152.15,337.26 140.01,336.98 136.68,335.98 ZM 293.88 314.30 C302.20,315.58 303.06,314.65 300.00,307.74 C296.73,300.35 295.13,300.56 292.76,308.70 L 291.25 313.89 ZM 146.25 335.27 C148.53,335.68 153.08,335.09 154.00,334.27 C154.65,333.69 148.83,329.01 147.45,329.00 C143.90,328.99 142.82,334.65 146.25,335.27 ZM 124.03 309.25 C124.00,313.24 124.30,314.00 125.88,314.00 C126.91,314.00 128.29,313.36 128.93,312.58 C129.88,311.44 129.50,310.49 127.09,307.83 L 124.06 304.50 Z" fill="rgb(150,145,129)"/>
<path d="M 459.04 203.00 C457.24,202.98 455.13,202.98 452.66,202.99 C451.27,203.00 449.78,203.00 448.16,203.00 L 428.32 203.00 L 427.15 205.58 C426.50,206.99 421.00,220.60 414.93,235.83 C399.25,275.10 396.06,282.16 394.15,281.79 C392.74,281.52 387.32,269.69 379.82,250.50 C377.53,244.64 373.69,235.94 371.23,231.03 C369.25,227.05 363.78,223.00 360.40,223.00 C358.11,223.00 355.62,218.85 350.64,206.75 L 349.10 203.00 L 329.05 203.00 C327.35,203.00 325.79,202.99 324.34,202.99 C317.89,202.96 313.87,202.95 311.58,203.50 L 311.50 203.50 L 311.50 203.52 C310.41,203.79 309.73,204.19 309.38,204.79 C308.51,206.24 309.57,208.84 311.45,213.48 C311.81,214.37 312.21,215.33 312.62,216.38 C316.11,225.17 317.62,228.71 322.47,239.50 C323.71,242.25 325.05,245.55 325.45,246.82 C325.85,248.10 327.66,252.15 329.46,255.82 C331.27,259.50 333.09,263.62 333.51,264.99 C333.94,266.36 335.51,270.19 337.00,273.49 C340.52,281.27 341.10,283.00 340.19,283.00 C339.79,283.00 337.97,279.96 336.16,276.25 C334.35,272.54 332.43,268.83 331.90,268.00 C331.37,267.17 330.16,264.81 329.22,262.75 C328.27,260.68 324.35,252.60 320.50,244.78 C313.29,230.12 310.82,227.13 305.46,226.54 C303.87,226.37 302.41,225.84 302.22,225.36 C302.02,224.89 299.53,220.00 296.68,214.50 L 291.50 204.50 L 285.03 204.20 C284.37,204.17 283.75,204.13 283.17,204.10 C282.65,204.07 282.16,204.04 281.70,204.02 C282.52,204.00 283.41,204.00 284.41,204.00 L 292.67 204.00 L 295.50 209.41 C298.29,214.75 298.38,214.81 302.95,214.85 C309.63,214.90 310.49,214.09 308.42,209.75 C304.79,202.15 307.76,201.00 331.00,201.00 L 348.87 201.00 L 354.50 211.50 L 359.85 211.67 C367.82,211.93 374.37,213.81 377.80,216.82 C380.69,219.36 385.40,228.84 391.05,243.50 C395.28,254.49 400.08,263.97 401.28,263.73 C402.62,263.47 403.89,260.88 408.02,250.00 C411.45,240.96 417.50,226.00 419.95,220.50 C420.92,218.30 422.29,214.70 422.98,212.50 C423.68,210.30 424.64,208.07 425.12,207.55 C425.60,207.03 426.00,205.98 426.00,205.23 C426.00,201.33 428.19,200.95 448.70,201.23 L 468.50 201.50 L 468.67 211.50 L 479.58 212.04 C491.40,212.63 494.71,213.88 496.85,218.56 C498.57,222.35 498.24,228.10 496.06,232.39 C494.99,234.48 493.82,237.61 493.45,239.35 C493.08,241.08 491.92,243.92 490.87,245.65 C489.82,247.38 488.13,251.21 487.12,254.15 C486.10,257.09 483.41,263.43 481.13,268.23 C478.86,273.03 477.00,277.31 477.00,277.74 C477.00,278.18 476.09,280.23 474.98,282.31 C473.86,284.38 471.90,288.88 470.61,292.29 C469.33,295.71 466.65,301.80 464.65,305.83 C462.66,309.86 460.37,315.39 459.56,318.12 C458.75,320.84 457.17,324.24 456.04,325.67 C454.92,327.10 454.00,328.65 454.00,329.11 C454.00,329.58 449.73,339.61 444.50,351.42 C439.27,363.23 435.00,373.20 435.00,373.57 C435.00,373.94 433.83,376.86 432.39,380.06 C430.49,384.31 428.18,387.22 423.80,390.93 C417.85,395.96 417.75,396.00 410.86,396.00 C405.89,396.00 402.81,395.43 400.00,394.00 C394.78,391.34 392.78,391.47 388.89,394.75 L 385.62 397.50 L 367.37 397.69 C366.76,397.70 366.16,397.70 365.58,397.71 C354.43,397.83 349.88,397.88 346.64,395.84 C344.24,394.33 342.56,391.66 339.45,387.03 C333.07,377.52 331.16,376.74 315.32,377.16 C308.44,377.35 302.63,377.79 302.41,378.15 C302.19,378.51 303.17,379.86 304.58,381.15 C306.00,382.44 308.25,384.53 309.58,385.79 C310.91,387.06 313.79,388.72 315.99,389.50 C318.19,390.27 320.55,391.38 321.24,391.97 C326.02,396.02 327.75,397.17 331.86,399.04 C334.41,400.20 337.62,401.81 339.00,402.61 C342.35,404.58 355.16,410.49 361.00,412.76 C362.38,413.29 366.88,415.12 371.00,416.81 C373.85,417.97 377.08,419.21 379.45,420.03 C376.83,419.26 373.26,418.23 370.87,417.56 C351.90,412.22 309.47,391.76 282.50,374.95 C242.72,350.15 216.19,329.34 186.95,300.03 C158.71,271.72 133.94,231.40 126.81,202.16 C122.72,185.37 124.37,167.15 131.06,155.41 C134.77,148.91 143.17,140.96 150.02,137.49 C156.23,134.34 174.29,128.48 181.36,127.30 C184.04,126.86 186.20,126.06 186.17,125.52 C186.14,124.97 183.05,123.69 179.31,122.66 C172.00,120.64 150.15,119.85 138.50,121.19 L 132.50 121.87 L 139.00 119.19 C145.36,116.56 145.96,116.51 167.00,116.50 C188.87,116.50 194.61,117.16 211.50,121.63 C221.19,124.19 243.15,131.75 250.70,135.12 C253.00,136.16 255.13,137.00 255.43,137.00 C256.57,137.00 287.80,152.37 293.00,155.49 C304.57,162.45 318.00,169.80 317.96,169.16 C317.90,168.09 305.49,160.21 285.00,148.23 C272.70,141.04 235.72,123.00 233.27,123.00 C231.83,123.00 219.43,117.83 213.66,114.83 C212.23,114.08 203.37,111.29 194.94,108.83 C209.15,112.61 222.90,116.89 228.55,119.57 C231.38,120.90 234.02,122.00 234.42,122.00 C234.83,122.00 238.38,123.51 242.33,125.36 C246.27,127.21 251.30,129.51 253.50,130.48 C255.70,131.45 259.67,133.31 262.33,134.62 C264.99,135.93 267.80,137.00 268.58,137.00 C269.36,137.00 270.00,137.44 270.00,137.98 C270.00,138.52 271.24,139.27 272.75,139.65 C274.26,140.02 277.48,141.38 279.90,142.67 C282.32,143.95 285.10,145.00 286.07,145.00 C287.05,145.00 289.12,146.05 290.67,147.34 C292.23,148.62 296.65,151.35 300.50,153.41 C304.35,155.46 308.65,158.24 310.05,159.57 C311.46,160.91 313.09,162.00 313.67,162.00 C316.39,162.00 343.77,181.71 344.58,184.25 C346.22,189.41 341.04,188.63 332.27,182.38 C329.65,180.52 327.15,179.00 326.71,179.00 C325.91,179.00 319.93,175.03 319.00,173.88 C318.73,173.54 315.74,172.26 312.36,171.04 C307.56,169.30 305.77,169.05 304.18,169.91 C300.93,171.64 296.31,171.19 291.22,168.64 C288.62,167.34 284.70,165.70 282.50,165.01 C280.30,164.31 277.90,163.26 277.16,162.67 C275.71,161.52 268.46,158.77 260.50,156.35 C243.79,151.27 238.58,149.75 230.50,147.56 C225.55,146.22 217.45,144.62 212.50,144.00 C207.55,143.39 199.83,142.39 195.34,141.80 C185.96,140.54 168.00,142.08 163.29,144.53 C161.75,145.33 159.82,145.99 158.98,145.99 C154.71,146.01 142.88,156.45 139.70,163.00 C137.78,166.98 137.53,169.11 137.56,181.50 C137.59,191.21 138.04,196.68 139.05,199.34 L 140.50 203.18 L 174.08 203.06 C192.54,202.99 208.40,203.22 209.33,203.57 C210.43,203.99 211.00,205.35 211.00,207.54 C211.00,210.47 212.89,213.74 214.82,214.14 C215.19,214.22 218.66,214.39 222.52,214.52 C230.59,214.80 236.28,217.09 239.41,221.32 C241.32,223.90 241.54,225.87 242.00,244.32 C242.37,259.38 242.81,264.50 243.73,264.50 C245.32,264.50 252.30,251.43 263.27,228.00 C261.25,232.36 258.47,238.32 256.97,241.50 C255.41,244.80 251.57,253.12 248.45,260.00 C239.75,279.15 231.92,294.07 230.91,293.45 C230.40,293.13 230.00,280.08 230.00,263.39 C230.00,231.00 229.75,229.48 224.03,226.52 C222.42,225.68 219.39,224.99 217.30,224.98 C215.21,224.98 213.00,224.64 212.39,224.23 C211.78,223.83 211.04,219.52 210.75,214.65 C210.45,209.79 209.80,205.40 209.29,204.89 C208.76,204.36 194.71,204.08 175.94,204.24 L 143.50 204.50 L 143.22 217.97 C142.92,232.51 143.49,235.18 147.83,239.34 C150.18,241.59 151.50,241.94 158.51,242.20 L 166.50 242.50 L 167.00 253.60 C167.35,261.31 167.96,265.28 169.00,266.60 C176.31,275.88 208.83,308.22 210.08,307.45 C210.59,307.14 211.00,305.33 211.00,303.44 C211.00,298.95 212.47,299.08 217.72,304.03 C222.88,308.90 224.17,311.12 222.95,313.05 C222.44,313.85 222.02,315.50 222.02,316.72 C222.00,318.89 224.16,320.76 249.32,340.29 C258.96,347.77 264.13,350.70 268.97,351.43 C271.43,351.79 273.68,352.44 273.97,352.87 C275.07,354.48 286.64,361.72 289.90,362.84 C291.86,363.51 299.33,364.00 307.52,364.00 L 321.73 364.00 L 324.29 367.87 L 326.85 371.73 L 336.76 372.43 L 346.67 373.14 L 350.15 378.32 C352.49,381.80 354.75,383.91 357.06,384.75 C361.74,386.45 379.17,385.93 381.47,384.02 C382.74,382.97 383.02,381.71 382.57,379.06 C382.48,378.52 382.40,378.01 382.31,377.55 C381.80,374.58 381.53,373.07 382.17,372.24 C382.93,371.25 385.00,371.27 389.50,370.97 C393.90,370.68 398.00,370.13 398.62,369.74 C399.32,369.31 400.96,371.32 402.93,375.02 C406.35,381.44 408.26,383.00 412.71,383.00 C418.19,383.00 420.09,380.47 427.04,364.00 C428.78,359.88 431.79,352.90 433.73,348.50 C435.67,344.10 438.14,338.48 439.22,336.00 C440.29,333.52 442.46,328.58 444.02,325.00 C445.58,321.42 448.51,314.67 450.52,310.00 C452.52,305.33 455.00,299.70 456.01,297.50 C459.45,290.02 465.79,275.52 468.49,269.00 C469.96,265.42 471.83,261.15 472.64,259.50 C477.45,249.70 484.00,232.74 484.00,230.10 C484.00,224.93 481.09,223.00 473.25,222.98 C463.44,222.96 463.10,222.56 465.78,214.24 C466.06,213.38 466.32,212.59 466.57,211.86 C467.79,208.18 468.51,206.02 467.75,204.75 C467.58,204.47 467.33,204.23 467.00,204.03 L 467.00 203.00 ZM 461.00 489.03 C451.69,490.32 427.72,489.96 419.50,488.40 C415.65,487.68 408.33,486.59 403.23,485.98 C398.14,485.38 391.39,483.99 388.23,482.88 C385.08,481.78 380.70,480.44 378.50,479.90 C372.91,478.53 341.49,468.28 339.30,467.12 C338.31,466.60 333.23,464.29 328.00,461.99 C312.60,455.23 294.28,446.20 283.15,439.89 C277.43,436.65 272.41,434.00 272.00,434.00 C271.58,434.00 270.66,433.29 269.94,432.43 C269.22,431.56 266.80,429.93 264.57,428.80 C259.48,426.23 243.62,415.82 243.16,414.75 C242.97,414.32 241.40,413.22 239.66,412.32 C237.92,411.43 234.10,408.85 231.16,406.60 C219.57,397.71 214.38,393.94 211.60,392.40 C208.17,390.50 203.53,391.00 198.06,393.85 C192.66,396.66 182.16,398.00 165.45,398.00 C148.43,398.00 142.52,396.79 130.86,390.93 C125.76,388.36 121.08,385.01 117.40,381.27 C111.94,375.72 103.24,364.00 104.58,364.00 C104.95,364.00 102.38,360.94 98.87,357.20 C91.33,349.15 86.60,340.69 85.09,332.54 C84.89,331.46 84.70,329.63 84.54,327.37 C84.92,330.00 85.57,332.03 86.66,335.08 C89.83,343.96 92.82,349.01 98.36,354.88 C104.15,361.00 115.78,368.43 123.70,371.07 C127.37,372.29 131.42,374.32 132.68,375.59 C136.01,378.92 146.56,383.66 153.43,384.92 C161.11,386.32 178.15,386.30 187.31,384.89 C194.70,383.75 200.64,381.35 202.94,378.57 C203.66,377.71 204.77,377.00 205.42,377.00 C206.06,377.00 211.52,380.41 217.54,384.58 C223.57,388.75 230.07,393.18 232.00,394.43 C259.50,412.27 278.63,422.77 311.50,438.05 C321.97,442.92 346.35,451.44 360.00,455.00 C360.39,455.10 360.89,455.23 361.47,455.39 C362.28,455.65 363.22,455.92 364.30,456.19 C366.13,456.71 368.18,457.31 370.00,457.85 C378.48,460.38 390.19,462.65 402.00,464.06 C407.23,464.68 411.69,465.38 411.92,465.60 C412.70,466.35 436.45,465.98 453.44,464.95 C468.18,464.06 471.57,463.52 479.44,460.82 C488.80,457.62 496.57,452.82 499.39,448.53 C502.08,444.42 501.52,443.74 496.00,444.50 C493.20,444.89 491.00,444.79 491.00,444.29 C491.00,443.79 492.16,441.84 493.58,439.94 C499.93,431.47 504.78,418.85 505.48,409.00 C505.84,403.93 505.74,403.27 505.06,406.00 C502.59,415.76 500.59,421.97 498.44,426.50 C493.02,437.91 479.34,449.32 469.64,450.52 C459.84,451.73 452.40,450.15 457.17,447.86 C470.50,441.49 474.64,439.07 479.14,435.03 C489.84,425.45 496.00,410.35 496.00,393.72 C496.00,388.74 495.76,384.91 495.47,385.20 C495.17,385.49 494.48,388.51 493.94,391.90 C493.27,396.04 492.46,399.45 491.35,402.45 C492.52,398.91 493.00,394.94 493.00,390.02 C493.00,382.26 494.21,379.20 496.13,382.12 C497.37,384.02 496.62,405.48 495.11,410.98 C493.57,416.62 487.09,428.18 482.36,433.75 L 478.74 438.00 L 481.41 438.00 C484.98,438.00 491.92,434.36 494.45,431.16 C499.89,424.29 501.97,419.02 503.15,409.14 C504.61,396.82 504.93,395.53 506.15,396.75 C507.48,398.08 507.37,412.03 506.02,413.38 C505.46,413.94 505.00,415.42 505.00,416.67 C505.00,420.80 507.83,418.10 509.71,412.17 C510.99,408.12 512.07,406.41 513.50,406.14 C514.60,405.94 516.76,404.87 518.30,403.78 C520.91,401.93 521.23,401.90 522.92,403.43 C524.09,404.48 525.18,407.84 525.98,412.79 C526.66,417.03 527.93,421.85 528.80,423.50 C529.78,425.35 530.49,429.60 530.66,434.61 C530.89,441.88 530.67,443.06 528.46,446.05 C527.11,447.89 525.99,450.09 525.98,450.94 C525.96,451.80 524.27,454.70 522.23,457.39 C520.18,460.08 517.96,463.22 517.30,464.36 C516.11,466.41 511.19,470.37 505.62,473.75 C504.04,474.71 501.55,476.47 500.10,477.65 C498.64,478.83 495.43,480.34 492.97,480.99 C490.51,481.65 487.03,483.09 485.23,484.19 C483.42,485.29 478.70,486.63 474.73,487.16 C470.75,487.70 464.58,488.54 461.00,489.03 ZM 104.97 103.94 C94.15,107.09 86.33,111.67 78.98,119.00 C71.81,126.14 67.95,132.97 65.40,143.00 C62.93,152.76 63.91,172.53 67.45,184.35 C74.06,206.38 88.50,233.23 106.81,257.50 C140.42,302.06 185.89,344.51 236.05,378.17 C266.64,398.69 293.16,413.42 339.00,435.32 C349.35,440.27 368.00,448.00 369.58,448.00 C369.92,448.00 371.62,448.64 373.35,449.42 C375.08,450.20 380.10,452.04 384.50,453.51 C400.70,458.92 395.03,459.11 373.50,453.87 C362.76,451.27 343.81,445.36 338.50,442.96 C337.40,442.47 332.90,440.66 328.50,438.94 C320.43,435.79 319.08,435.20 299.90,426.23 C271.37,412.90 233.09,389.25 203.50,366.66 C183.11,351.09 178.66,347.66 178.00,347.00 C177.73,346.72 173.68,343.27 169.00,339.33 C156.23,328.56 118.55,289.98 108.77,277.67 C89.12,252.93 72.18,225.29 64.25,205.00 C57.06,186.62 52.33,159.71 54.79,151.18 C55.14,149.94 55.64,147.72 56.12,145.34 C54.99,158.14 56.36,179.03 59.09,184.24 C59.59,185.19 60.00,186.67 60.00,187.53 C60.00,188.80 60.25,188.85 61.40,187.79 C62.16,187.08 62.64,186.26 62.47,185.96 C61.97,185.13 61.94,174.87 62.40,160.00 C62.92,142.91 65.61,133.73 73.11,123.50 C80.68,113.17 89.30,107.84 104.97,103.94 ZM 96.36 95.92 C104.33,92.83 110.25,90.98 112.52,90.90 C114.16,90.85 116.62,90.41 118.00,89.92 C121.21,88.79 108.28,89.69 102.41,90.92 C102.79,90.76 103.16,90.58 103.50,90.40 C108.97,87.51 141.94,86.48 143.59,89.14 C144.23,90.18 144.00,90.21 131.50,90.50 C117.10,90.82 106.00,92.46 96.36,95.92 ZM 293.88 314.30 L 291.25 313.89 L 292.76 308.70 C295.13,300.56 296.73,300.35 300.00,307.74 C303.06,314.65 302.20,315.58 293.88,314.30 ZM 57.60 118.19 C52.80,125.74 49.40,135.01 47.94,144.97 C46.56,154.43 47.19,168.69 49.46,179.50 C51.37,188.56 57.43,205.73 62.71,217.61 C62.19,216.51 61.73,215.50 61.36,214.63 C59.99,211.40 57.79,207.05 56.47,204.95 C54.12,201.23 53.38,198.75 50.99,186.50 C50.35,183.20 48.91,177.62 47.80,174.10 C46.08,168.66 45.84,165.74 46.19,154.60 C46.48,145.19 47.07,140.51 48.25,138.00 C49.16,136.07 50.85,132.08 51.99,129.12 C53.51,125.20 55.38,121.56 57.60,118.19 ZM 165.15 102.03 C146.38,99.23 127.39,99.15 113.02,101.98 C116.55,101.08 119.46,100.29 120.50,99.92 C125.14,98.29 146.24,97.54 150.06,98.87 C151.85,99.50 158.60,100.91 165.06,102.01 ZM 146.25 335.27 C142.82,334.65 143.90,328.99 147.45,329.00 C148.83,329.01 154.65,333.69 154.00,334.27 C153.08,335.09 148.53,335.68 146.25,335.27 ZM 124.03 309.25 L 124.06 304.50 L 127.09 307.83 C129.50,310.49 129.88,311.44 128.93,312.58 C128.29,313.36 126.91,314.00 125.88,314.00 C124.30,314.00 124.00,313.24 124.03,309.25 ZM 98.09 92.01 C85.46,95.36 79.06,98.30 70.30,104.62 C73.39,102.26 76.78,100.14 80.48,98.26 C86.41,95.25 94.98,92.22 98.09,92.01 ZM 269.01 215.59 C269.26,215.05 269.51,214.50 269.76,213.94 C272.23,208.54 273.48,206.07 275.84,204.94 C273.77,206.25 272.04,209.21 269.01,215.59 ZM 70.35 232.38 C74.50,239.70 78.70,246.59 79.25,246.83 C78.42,246.47 74.44,239.83 70.35,232.38 ZM 61.62 126.35 C63.59,122.20 66.04,118.22 68.78,114.79 C69.43,113.98 70.19,113.13 71.03,112.26 C67.38,116.36 64.15,121.20 61.62,126.35 ZM 410.21 427.79 C418.32,429.03 426.72,429.49 438.00,429.47 C426.55,429.49 418.60,429.14 410.21,427.79 ZM 86.70 100.24 C88.39,99.28 90.02,98.46 91.50,97.86 C91.65,97.80 91.80,97.74 91.94,97.68 C90.16,98.46 88.41,99.31 86.70,100.24 Z" fill="rgb(222,215,191)"/>
<path d="M 0.00 277.00 L 0.00 0.00 L 277.00 0.00 L 554.00 0.00 L 554.00 277.00 L 554.00 554.00 L 277.00 554.00 L 0.00 554.00 L 0.00 277.00 ZM 461.00 489.03 C464.58,488.54 470.75,487.70 474.73,487.16 C478.70,486.63 483.42,485.29 485.23,484.19 C487.03,483.09 490.51,481.65 492.97,480.99 C495.43,480.34 498.64,478.83 500.10,477.65 C501.55,476.47 504.04,474.71 505.62,473.75 C511.19,470.37 516.11,466.41 517.30,464.36 C517.96,463.22 520.18,460.08 522.23,457.39 C524.27,454.70 525.96,451.80 525.98,450.94 C525.99,450.09 527.11,447.89 528.46,446.05 C530.67,443.06 530.89,441.88 530.66,434.61 C530.49,429.60 529.78,425.35 528.80,423.50 C527.93,421.85 526.66,417.03 525.98,412.79 C525.18,407.84 524.09,404.48 522.92,403.43 C521.23,401.90 520.91,401.93 518.30,403.78 C516.76,404.87 514.60,405.94 513.50,406.14 C512.07,406.41 510.99,408.12 509.71,412.17 C507.83,418.10 505.00,420.80 505.00,416.67 C505.00,415.42 505.46,413.94 506.02,413.38 C507.37,412.03 507.48,398.08 506.15,396.75 C504.93,395.53 504.61,396.82 503.15,409.14 C501.97,419.02 499.89,424.29 494.45,431.16 C491.92,434.36 484.98,438.00 481.41,438.00 L 478.74 438.00 L 482.36 433.75 C487.09,428.18 493.57,416.62 495.11,410.98 C496.62,405.48 497.37,384.02 496.13,382.12 C494.21,379.20 493.00,382.26 493.00,390.02 C493.00,401.51 490.39,407.83 482.38,415.70 C475.32,422.65 472.86,424.14 463.22,427.27 C457.32,429.18 454.24,429.45 438.00,429.47 C418.73,429.50 407.84,428.15 392.50,423.82 C388.65,422.73 383.92,421.40 382.00,420.86 C380.08,420.32 375.12,418.50 371.00,416.81 C366.88,415.12 362.38,413.29 361.00,412.76 C355.16,410.49 342.35,404.58 339.00,402.61 C337.62,401.81 334.41,400.20 331.86,399.04 C327.75,397.17 326.02,396.02 321.24,391.97 C320.55,391.38 318.19,390.27 315.99,389.50 C313.79,388.72 310.91,387.06 309.58,385.79 C308.25,384.53 306.00,382.44 304.58,381.15 C303.17,379.86 302.19,378.51 302.41,378.15 C302.63,377.79 308.44,377.35 315.32,377.16 C331.16,376.74 333.07,377.52 339.45,387.03 C346.97,398.24 346.12,397.91 367.37,397.69 L 385.62 397.50 L 388.89 394.75 C392.78,391.47 394.78,391.34 400.00,394.00 C402.81,395.43 405.89,396.00 410.86,396.00 C417.75,396.00 417.85,395.96 423.80,390.93 C428.18,387.22 430.49,384.31 432.39,380.06 C433.83,376.86 435.00,373.94 435.00,373.57 C435.00,373.20 439.27,363.23 444.50,351.42 C449.73,339.61 454.00,329.58 454.00,329.11 C454.00,328.65 454.92,327.10 456.04,325.67 C457.17,324.24 458.75,320.84 459.56,318.12 C460.37,315.39 462.66,309.86 464.65,305.83 C466.65,301.80 469.33,295.71 470.61,292.29 C471.90,288.88 473.86,284.38 474.98,282.31 C476.09,280.23 477.00,278.18 477.00,277.74 C477.00,277.31 478.86,273.03 481.13,268.23 C483.41,263.43 486.10,257.09 487.12,254.15 C488.13,251.21 489.82,247.38 490.87,245.65 C491.92,243.92 493.08,241.08 493.45,239.35 C493.82,237.61 494.99,234.48 496.06,232.39 C498.24,228.10 498.57,222.35 496.85,218.56 C494.71,213.88 491.40,212.63 479.58,212.04 L 468.67 211.50 L 468.58 206.50 L 468.50 201.50 L 448.70 201.23 C428.19,200.95 426.00,201.33 426.00,205.23 C426.00,205.98 425.60,207.03 425.12,207.55 C424.64,208.07 423.68,210.30 422.98,212.50 C422.29,214.70 420.92,218.30 419.95,220.50 C417.50,226.00 411.45,240.96 408.02,250.00 C403.89,260.88 402.62,263.47 401.28,263.73 C400.08,263.97 395.28,254.49 391.05,243.50 C385.40,228.84 380.69,219.36 377.80,216.82 C374.37,213.81 367.82,211.93 359.85,211.67 L 354.50 211.50 L 351.69 206.25 L 348.87 201.00 L 331.00 201.00 C307.76,201.00 304.79,202.15 308.42,209.75 C310.49,214.09 309.63,214.90 302.95,214.85 C298.38,214.81 298.29,214.75 295.50,209.41 L 292.67 204.00 L 284.41 204.00 C274.67,204.00 274.14,204.36 269.76,213.94 C255.06,246.14 245.61,264.50 243.73,264.50 C242.81,264.50 242.37,259.38 242.00,244.32 C241.54,225.87 241.32,223.90 239.41,221.32 C236.28,217.09 230.59,214.80 222.52,214.52 C218.66,214.39 215.19,214.22 214.82,214.14 C212.89,213.74 211.00,210.47 211.00,207.54 C211.00,205.35 210.43,203.99 209.33,203.57 C208.40,203.22 192.54,202.99 174.08,203.06 L 140.50 203.18 L 139.05 199.34 C138.04,196.68 137.59,191.21 137.56,181.50 C137.53,169.11 137.78,166.98 139.70,163.00 C142.88,156.45 154.71,146.01 158.98,145.99 C159.82,145.99 161.75,145.33 163.29,144.53 C168.00,142.08 185.96,140.54 195.34,141.80 C199.83,142.39 207.55,143.39 212.50,144.00 C217.45,144.62 225.55,146.22 230.50,147.56 C238.58,149.75 243.79,151.27 260.50,156.35 C268.46,158.77 275.71,161.52 277.16,162.67 C277.90,163.26 280.30,164.31 282.50,165.01 C284.70,165.70 288.62,167.34 291.22,168.64 C296.31,171.19 300.93,171.64 304.18,169.91 C305.77,169.05 307.56,169.30 312.36,171.04 C315.74,172.26 318.73,173.54 319.00,173.88 C319.93,175.03 325.91,179.00 326.71,179.00 C327.15,179.00 329.65,180.52 332.27,182.38 C341.04,188.63 346.22,189.41 344.58,184.25 C343.77,181.71 316.39,162.00 313.67,162.00 C313.09,162.00 311.46,160.91 310.05,159.57 C308.65,158.24 304.35,155.46 300.50,153.41 C296.65,151.35 292.23,148.62 290.67,147.34 C289.12,146.05 287.05,145.00 286.07,145.00 C285.10,145.00 282.32,143.95 279.90,142.67 C277.48,141.38 274.26,140.02 272.75,139.65 C271.24,139.27 270.00,138.52 270.00,137.98 C270.00,137.44 269.36,137.00 268.58,137.00 C267.80,137.00 264.99,135.93 262.33,134.62 C259.67,133.31 255.70,131.45 253.50,130.48 C251.30,129.51 246.27,127.21 242.33,125.36 C238.38,123.51 234.83,122.00 234.42,122.00 C234.02,122.00 231.38,120.90 228.55,119.57 C218.60,114.86 183.52,105.16 165.06,102.01 C158.60,100.91 151.85,99.50 150.06,98.87 C146.24,97.54 125.14,98.29 120.50,99.92 C118.85,100.50 112.55,102.14 106.50,103.57 C89.86,107.50 80.92,112.83 73.11,123.50 C65.61,133.73 62.92,142.91 62.40,160.00 C61.94,174.87 61.97,185.13 62.47,185.96 C62.64,186.26 62.16,187.08 61.40,187.79 C60.25,188.85 60.00,188.80 60.00,187.53 C60.00,186.67 59.59,185.19 59.09,184.24 C55.89,178.13 54.55,150.47 56.93,139.57 C59.81,126.33 68.52,112.58 78.62,105.34 C92.75,95.20 107.56,91.04 131.50,90.50 C144.00,90.21 144.23,90.18 143.59,89.14 C141.94,86.48 108.97,87.51 103.50,90.40 C101.85,91.27 99.56,91.99 98.41,91.99 C95.61,92.00 86.62,95.14 80.48,98.26 C66.79,105.21 57.25,115.54 51.99,129.12 C50.85,132.08 49.16,136.07 48.25,138.00 C47.07,140.51 46.48,145.19 46.19,154.60 C45.84,165.74 46.08,168.66 47.80,174.10 C48.91,177.62 50.35,183.20 50.99,186.50 C53.38,198.75 54.12,201.23 56.47,204.95 C57.79,207.05 59.99,211.40 61.36,214.63 C65.13,223.52 77.70,246.15 79.25,246.83 C79.66,247.02 80.00,247.58 80.00,248.09 C80.00,249.90 103.24,282.10 107.01,285.51 C108.22,286.60 109.88,288.79 110.70,290.38 C112.85,294.54 111.56,294.97 96.75,294.98 L 84.00 295.00 L 84.00 310.82 C84.00,319.52 84.49,329.29 85.09,332.54 C86.60,340.69 91.33,349.15 98.87,357.20 C102.38,360.94 104.95,364.00 104.58,364.00 C103.24,364.00 111.94,375.72 117.40,381.27 C121.08,385.01 125.76,388.36 130.86,390.93 C142.52,396.79 148.43,398.00 165.45,398.00 C182.16,398.00 192.66,396.66 198.06,393.85 C203.53,391.00 208.17,390.50 211.60,392.40 C214.38,393.94 219.57,397.71 231.16,406.60 C234.10,408.85 237.92,411.43 239.66,412.32 C241.40,413.22 242.97,414.32 243.16,414.75 C243.62,415.82 259.48,426.23 264.57,428.80 C266.80,429.93 269.22,431.56 269.94,432.43 C270.66,433.29 271.58,434.00 272.00,434.00 C272.41,434.00 277.43,436.65 283.15,439.89 C294.28,446.20 312.60,455.23 328.00,461.99 C333.23,464.29 338.31,466.60 339.30,467.12 C341.49,468.28 372.91,478.53 378.50,479.90 C380.70,480.44 385.08,481.78 388.23,482.88 C391.39,483.99 398.14,485.38 403.23,485.98 C408.33,486.59 415.65,487.68 419.50,488.40 C427.72,489.96 451.69,490.32 461.00,489.03 Z" fill="rgb(254,252,247)"/>
</g>
</svg>